<svg width="16" height="16" viewBox="0 0 16 16" fill="none" xmlns="http://www.w3.org/2000/svg">
<path d="M14.6667 7.26146V2.72812C14.6667 1.72812 14.24 1.32812 13.18 1.32812H10.4867C9.42667 1.32812 9 1.72812 9 2.72812V7.26146C9 8.26146 9.42667 8.66146 10.4867 8.66146H13.18C14.24 8.66146 14.6667 8.26146 14.6667 7.26146Z" stroke="#EB4C6B" stroke-linecap="round" stroke-linejoin="round"/>
<path d="M14.6667 13.2719V12.0719C14.6667 11.0719 14.24 10.6719 13.18 10.6719H10.4867C9.42667 10.6719 9 11.0719 9 12.0719V13.2719C9 14.2719 9.42667 14.6719 10.4867 14.6719H13.18C14.24 14.6719 14.6667 14.2719 14.6667 13.2719Z" stroke="#EB4C6B" stroke-linecap="round" stroke-linejoin="round"/>
<path d="M7.0026 8.72813V13.2615C7.0026 14.2615 6.57594 14.6615 5.51594 14.6615H2.8226C1.7626 14.6615 1.33594 14.2615 1.33594 13.2615V8.72813C1.33594 7.72813 1.7626 7.32812 2.8226 7.32812H5.51594C6.57594 7.32812 7.0026 7.72813 7.0026 8.72813Z" stroke="#EB4C6B" stroke-linecap="round" stroke-linejoin="round"/>
<path d="M7.0026 2.72812V3.92813C7.0026 4.92813 6.57594 5.32813 5.51594 5.32813H2.8226C1.7626 5.32813 1.33594 4.92813 1.33594 3.92813V2.72812C1.33594 1.72812 1.7626 1.32812 2.8226 1.32812H5.51594C6.57594 1.32812 7.0026 1.72812 7.0026 2.72812Z" stroke="#EB4C6B" stroke-linecap="round" stroke-linejoin="round"/>
</svg>
