<svg width="40" height="16" viewBox="0 0 40 16" fill="none" xmlns="http://www.w3.org/2000/svg">
<path d="M18.6248 7.6346V12.2179H17.1667V0.902846H21.021C21.4829 0.895028 21.9417 0.978568 22.3711 1.14866C22.8005 1.31876 23.1921 1.57206 23.5233 1.89399C23.837 2.18674 24.0899 2.53845 24.2677 2.92901C24.4454 3.31958 24.5444 3.74134 24.559 4.17019C24.5736 4.59903 24.5036 5.02656 24.3529 5.42833C24.2022 5.8301 23.9738 6.19823 23.6808 6.51169L23.5233 6.67783C22.8501 7.31806 21.9506 7.66611 21.021 7.64319L18.6248 7.6346ZM18.6248 2.2893V6.28252H21.0569C21.5968 6.29971 22.1182 6.08916 22.4963 5.70387C22.7668 5.42196 22.9484 5.06674 23.0186 4.68242C23.0887 4.29809 23.0444 3.90161 22.891 3.54231C22.7376 3.183 22.4819 2.87673 22.1558 2.66158C21.8297 2.44644 21.4475 2.33192 21.0569 2.33227L18.6248 2.2893ZM27.9118 4.22002C28.8428 4.17706 29.7537 4.48929 30.4584 5.09802C31.0958 5.7139 31.4352 6.57327 31.3894 7.45986V12.2351H30.0015V11.138H29.9313C29.6824 11.5495 29.3305 11.8889 28.9102 12.1228C28.49 12.3566 28.016 12.4768 27.5351 12.4714C26.7501 12.4969 25.9845 12.2241 25.3924 11.708C25.1119 11.4792 24.887 11.1895 24.7349 10.861C24.5828 10.5325 24.5074 10.1736 24.5144 9.81168C24.4979 9.44586 24.5689 9.08139 24.7216 8.74856C24.8743 8.41574 25.1043 8.12418 25.3924 7.89814C26.0991 7.3899 26.9545 7.13048 27.8244 7.16051C28.5649 7.13187 29.2997 7.29371 29.9585 7.6346V7.33668C29.9634 7.09037 29.9121 6.84618 29.8086 6.6226C29.7052 6.39902 29.5522 6.20191 29.3613 6.04619C28.9779 5.69765 28.4757 5.50906 27.9576 5.51911C27.5814 5.51556 27.2105 5.608 26.8799 5.7877C26.5494 5.96739 26.2701 6.2284 26.0684 6.54606L24.7865 5.73825C25.1346 5.23953 25.6045 4.83819 26.1516 4.57244C26.6986 4.30669 27.3046 4.18537 27.9118 4.22002ZM26.0684 9.84605C26.065 10.0316 26.1072 10.2151 26.1914 10.3804C26.2756 10.5458 26.3991 10.6879 26.5511 10.7942C26.8705 11.0463 27.2673 11.1795 27.6755 11.1709C28.2899 11.1695 28.8786 10.9274 29.3169 10.4949C29.7537 10.0852 30.0015 9.51376 30.0015 8.91506C29.4501 8.52306 28.7801 8.33381 28.1052 8.37939C27.5811 8.35875 27.0641 8.5063 26.6299 8.80048C26.4579 8.91553 26.3168 9.07103 26.2189 9.25332C26.121 9.43561 26.0694 9.63914 26.0684 9.84605ZM39.3687 4.47497L34.5132 15.6325H33.0122L34.847 11.7252L31.6615 4.47497H33.2414L35.5502 10.0394L37.7975 4.47497H39.3687Z" fill="#5F6368"/>
<path d="M12.742 6.64583C12.742 6.20469 12.7076 5.76354 12.6375 5.32812H6.49292V7.83033H10.0035C9.93199 8.228 9.78098 8.60714 9.55948 8.94505C9.33798 9.28296 9.05055 9.57269 8.7144 9.79686V11.4211H10.8113C11.4489 10.8042 11.9501 10.0605 12.2826 9.23803C12.6152 8.41555 12.7717 7.5325 12.742 6.64583Z" fill="#4285F4"/>
<path d="M6.50164 12.9989C8.08622 13.0424 9.62784 12.4806 10.8128 11.4277L8.7131 9.79492C8.20858 10.1184 7.63694 10.3226 7.04165 10.3919C6.44635 10.4612 5.84309 10.3939 5.27773 10.1951C4.71236 9.99622 4.19979 9.67106 3.77898 9.24432C3.35818 8.81759 3.04023 8.30051 2.8493 7.73242H0.697998V9.4082C1.23632 10.4868 2.06447 11.394 3.08957 12.0283C4.11468 12.6625 5.2962 12.9986 6.50164 12.9989Z" fill="#34A853"/>
<path d="M2.84895 7.7438C2.57652 6.93786 2.57652 6.06472 2.84895 5.25878V3.58301H0.697652C0.239012 4.48743 0 5.48723 0 6.50129C0 7.51536 0.239012 8.51515 0.697652 9.41958L2.84895 7.7438Z" fill="#FBBC04"/>
<path d="M6.50164 2.5733C7.42835 2.55637 8.32417 2.90646 8.99383 3.54725L10.8558 1.6953C9.66858 0.581001 8.09385 -0.0267969 6.46584 0.000907136C5.26753 0.0069172 4.09431 0.344662 3.07622 0.976696C2.05814 1.60873 1.23498 2.51036 0.697998 3.58163L2.8493 5.25884C3.10084 4.48552 3.58849 3.81052 4.24365 3.32879C4.8988 2.84706 5.6885 2.58283 6.50164 2.5733Z" fill="#EA4335"/>
</svg>
