<svg width="56" height="35" viewBox="0 0 56 35" fill="none" xmlns="http://www.w3.org/2000/svg">
<rect x="0.5" y="0.5" width="55" height="34" rx="4.5" fill="white" stroke="#FFF2F5"/>
<path d="M15.3069 11.1151C15.7623 10.5458 16.0712 9.78115 15.9897 9C15.3234 9.03309 14.5105 9.43956 14.0394 10.0095C13.6167 10.4974 13.2427 11.2938 13.34 12.0422C14.0881 12.1071 14.8355 11.6685 15.3069 11.1151Z" fill="black"/>
<path d="M15.9815 12.1887C14.8948 12.1238 13.9715 12.805 13.4528 12.805C12.9338 12.805 12.1393 12.2211 11.28 12.237C10.1618 12.2532 9.12436 12.8858 8.55666 13.8915C7.38947 15.9027 8.24848 18.8872 9.38388 20.5254C9.93503 21.3364 10.5994 22.2285 11.4746 22.1964C12.3019 22.1639 12.6259 21.6611 13.6309 21.6611C14.6356 21.6611 14.9275 22.1964 15.8031 22.1802C16.7108 22.1639 17.2785 21.3692 17.8296 20.5582C18.4622 19.6336 18.7207 18.7415 18.737 18.6929C18.7207 18.6767 16.9865 18.0113 16.9703 16.0163C16.9541 14.3456 18.3321 13.5508 18.397 13.5018C17.6188 12.3509 16.4029 12.2211 15.9812 12.1887" fill="black"/>
<path d="M26.8119 9.92993C29.1729 9.92993 30.8173 11.5574 30.8173 13.9268C30.8173 16.3047 29.1392 17.9406 26.7529 17.9406H24.1389V22.0981H22.2502V9.92993H26.8119ZM24.1389 16.3553H26.3059C27.9506 16.3553 28.8862 15.47 28.8862 13.9353C28.8862 12.4009 27.9503 11.5237 26.3143 11.5237H24.1389V16.3553Z" fill="black"/>
<path d="M31.2861 19.5761C31.2861 18.0161 32.4751 17.1224 34.6673 16.9874L37.0199 16.844V16.1693C37.0199 15.1831 36.3708 14.6433 35.2156 14.6433C34.2625 14.6433 33.5709 15.1322 33.4281 15.8825H31.7244C31.7753 14.3059 33.2591 13.1592 35.2662 13.1592C37.4247 13.1592 38.833 14.2891 38.833 16.0431V22.0973H37.0877V20.6385H37.0455C36.5479 21.5913 35.4514 22.1898 34.2625 22.1898C32.5088 22.1898 31.2861 21.1446 31.2861 19.5761ZM37.0199 18.792V18.1089L34.9204 18.2438C33.7396 18.3197 33.1245 18.758 33.1245 19.5252C33.1245 20.2674 33.7652 20.7482 34.7686 20.7482C36.0499 20.7482 37.0199 19.93 37.0199 18.792Z" fill="black"/>
<path d="M40.4375 25.352V23.8935C40.5556 23.91 40.842 23.9269 40.9938 23.9269C41.8285 23.9269 42.3008 23.5733 42.5876 22.6621L42.7563 22.1226L39.5603 13.2688H41.5333L43.7597 20.4529H43.8018L46.0279 13.2688H47.9506L44.6365 22.5693C43.8774 24.7029 43.009 25.4029 41.1709 25.4029C41.0276 25.4029 40.5637 25.3861 40.4375 25.352Z" fill="black"/>
</svg>
