<svg width="56" height="35" viewBox="0 0 56 35" fill="none" xmlns="http://www.w3.org/2000/svg">
<rect x="0.5" y="0.5" width="55" height="34" rx="4.5" fill="#006FCF" stroke="#FFF2F5"/>
<path d="M14.1199 15.2484L15.2285 17.9354H13.0199L14.1199 15.2484ZM37.144 15.3601H32.8801V16.5447H37.0753V18.3193H32.8887V19.6398H37.1526V20.6983L40.1275 17.4828L37.1526 14.1312L37.144 15.3601ZM17.0017 12.0086H22.7237L23.9941 14.7801L25.1715 12H40.0243L41.5684 13.7044L43.1654 12H49.9874L44.9471 17.5172L49.9358 23H43.0121L41.4681 21.2955L39.8568 23H15.6367L14.9292 21.2955H13.3107L12.6017 23H7L11.7065 12H16.6193L17.0017 12.0086ZM29.4096 13.5526H26.2027L24.0543 18.6172L21.7268 13.5526H18.5443V20.4419L15.5938 13.5526H12.7392L9.32747 21.4474H11.5547L12.2622 19.7429H15.9805L16.688 21.4474H20.5839V15.8113L23.0918 21.456H24.7962L27.2884 15.8285V21.4574H29.3767L29.4111 13.5512L29.4096 13.5526ZM42.7872 17.5172L46.4124 13.5526H43.8027L41.5096 16.0247L39.2924 13.5526H30.8505V21.456H39.1721L41.4839 18.9666L43.701 21.456H46.3866L42.7872 17.5172Z" fill="white"/>
</svg>
