<svg width="56" height="35" viewBox="0 0 56 35" fill="none" xmlns="http://www.w3.org/2000/svg">
<rect x="0.5" y="0.5" width="55" height="34" rx="4.5" fill="#5A31F4" stroke="#FFF2F5"/>
<path d="M31.7339 13.7454C31.7339 16.1344 30.0481 17.8389 27.6934 17.8389H25.4748C25.4382 17.8394 25.4025 17.8505 25.372 17.8708C25.3415 17.8912 25.3175 17.9198 25.3029 17.9534C25.2935 17.9757 25.2887 17.9995 25.2886 18.0236V21.1632C25.2886 21.1876 25.2838 21.2117 25.2744 21.2342C25.265 21.2568 25.2513 21.2772 25.234 21.2944C25.2167 21.3115 25.1961 21.3251 25.1735 21.3343C25.151 21.3435 25.1268 21.3482 25.1024 21.348H23.5498C23.5004 21.348 23.453 21.3284 23.4181 21.2934C23.3832 21.2585 23.3636 21.2112 23.3636 21.1618V9.83954C23.363 9.80265 23.3737 9.76645 23.3941 9.73575C23.4146 9.70506 23.4439 9.68131 23.4782 9.66766C23.5009 9.65817 23.5252 9.6533 23.5498 9.65334H27.7034C30.0481 9.65334 31.7339 11.3563 31.7339 13.7454ZM29.7974 13.7454C29.7974 12.3733 28.855 11.3707 27.5774 11.3707H25.4748C25.4503 11.3707 25.4261 11.3755 25.4035 11.3848C25.3809 11.3942 25.3604 11.4079 25.3431 11.4252C25.3258 11.4425 25.3121 11.463 25.3028 11.4856C25.2934 11.5082 25.2886 11.5324 25.2886 11.5568V15.9253C25.2883 15.9498 25.293 15.9741 25.3024 15.9968C25.3117 16.0194 25.3255 16.0399 25.343 16.0571C25.3603 16.0744 25.3808 16.0882 25.4034 16.0975C25.4261 16.1069 25.4503 16.1116 25.4748 16.1115H27.5774C28.855 16.1187 29.7974 15.1161 29.7974 13.7454ZM32.1951 19.1752C32.1787 18.8082 32.2551 18.4431 32.417 18.1134C32.579 17.7837 32.8214 17.5002 33.1218 17.2889C33.7277 16.8363 34.6744 16.6014 36.0652 16.5527L37.5447 16.5011V16.0671C37.5447 15.1977 36.9575 14.8311 36.015 14.8311C35.0726 14.8311 34.4753 15.1619 34.3392 15.7048C34.3276 15.7429 34.3038 15.7762 34.2715 15.7994C34.2391 15.8227 34.2 15.8348 34.1602 15.8337H32.6964C32.6561 15.8342 32.6167 15.8216 32.5842 15.7979C32.5517 15.7741 32.5277 15.7404 32.5159 15.7019C32.5082 15.6764 32.5062 15.6495 32.5102 15.6231C32.7279 14.3369 33.805 13.3601 36.0823 13.3601C38.5058 13.3601 39.3809 14.4816 39.3809 16.62V21.1632C39.3807 21.1878 39.3757 21.2121 39.3661 21.2347C39.3564 21.2573 39.3424 21.2778 39.3249 21.295C39.3073 21.3121 39.2865 21.3257 39.2636 21.3348C39.2408 21.3439 39.2164 21.3483 39.1918 21.348H37.7166C37.6672 21.348 37.6198 21.3284 37.5849 21.2934C37.55 21.2585 37.5304 21.2112 37.5304 21.1618V20.8238C37.5309 20.7957 37.5227 20.7682 37.5071 20.7449C37.4915 20.7216 37.4691 20.7036 37.443 20.6934C37.4172 20.6832 37.3889 20.6808 37.3617 20.6864C37.3345 20.692 37.3095 20.7054 37.2898 20.7249C36.8458 21.2033 36.1325 21.5485 34.9881 21.5485C33.3051 21.5485 32.1951 20.6791 32.1951 19.1752ZM37.5447 18.1912V17.8389L35.6269 17.9391C34.6171 17.9907 34.0299 18.406 34.0299 19.1079C34.0299 19.7438 34.5684 20.0961 35.5109 20.0961C36.7899 20.0961 37.5447 19.4087 37.5447 18.1912ZM40.8619 24.7797V23.4635C40.8623 23.4359 40.8687 23.4087 40.8809 23.3839C40.893 23.3592 40.9105 23.3374 40.9321 23.3202C40.9535 23.3029 40.9784 23.2905 41.0051 23.2838C41.0319 23.2771 41.0597 23.2763 41.0868 23.2816C41.3131 23.3231 41.5422 23.3446 41.7728 23.3446C42.1678 23.3662 42.5586 23.2542 42.8821 23.0266C43.2056 22.7989 43.443 22.469 43.556 22.0899L43.652 21.7877C43.6663 21.7469 43.6663 21.7024 43.652 21.6616L40.5797 13.8256C40.5619 13.7826 40.5609 13.7345 40.5768 13.6907C40.5927 13.647 40.6244 13.6108 40.6657 13.5893C40.693 13.5748 40.7235 13.5675 40.7545 13.5678H42.2441C42.2823 13.5679 42.3196 13.5796 42.351 13.6013C42.3825 13.623 42.4066 13.6538 42.4202 13.6895L44.5056 19.2167C44.5185 19.2538 44.5428 19.286 44.5749 19.3086C44.607 19.3312 44.6454 19.3431 44.6847 19.3428C44.7239 19.3427 44.7621 19.3306 44.7941 19.308C44.8262 19.2855 44.8505 19.2536 44.8637 19.2167L46.6756 13.7053C46.6878 13.6673 46.712 13.6342 46.7445 13.611C46.777 13.5878 46.8161 13.5757 46.856 13.5764H48.3972C48.4434 13.5766 48.488 13.5936 48.5228 13.6241C48.5575 13.6547 48.58 13.6967 48.5862 13.7425C48.5897 13.7731 48.5858 13.804 48.5748 13.8328L45.2877 22.5353C44.5314 24.5592 43.2352 25.0748 41.8072 25.0748C41.5362 25.0823 41.2656 25.0504 41.0037 24.9802C40.9598 24.9695 40.9212 24.9433 40.8949 24.9065C40.8686 24.8697 40.8579 24.8248 40.8619 24.7797ZM13.3834 9.00021C11.429 8.98561 9.54258 9.71652 8.10825 11.0441C8.04722 11.0996 8.00912 11.1759 8.00144 11.258C7.99375 11.3402 8.01704 11.4222 8.06672 11.4881L8.95187 12.6898C8.98055 12.7303 9.01781 12.764 9.06099 12.7885C9.10416 12.813 9.15221 12.8277 9.20171 12.8315C9.2512 12.8353 9.30093 12.8282 9.34736 12.8107C9.3938 12.7931 9.43579 12.7655 9.47036 12.7299C9.98588 12.218 10.5981 11.8138 11.2714 11.5408C11.9447 11.2679 12.6655 11.1316 13.392 11.1401C16.4284 11.1401 18.014 13.4088 18.014 15.6518C18.014 18.0866 16.3482 19.8025 13.9534 19.8355C12.1029 19.8355 10.7079 18.618 10.7079 17.0081C10.7094 16.601 10.802 16.1995 10.9786 15.8327C11.1553 15.466 11.4117 15.1433 11.7291 14.8883C11.7967 14.8329 11.8396 14.753 11.8484 14.6661C11.8573 14.5791 11.8314 14.4922 11.7764 14.4243L10.8454 13.257C10.8173 13.2211 10.7822 13.1913 10.7422 13.1693C10.7023 13.1473 10.6583 13.1336 10.613 13.1291C10.5676 13.1245 10.5218 13.1292 10.4783 13.1428C10.4348 13.1564 10.3945 13.1787 10.3598 13.2083C9.78962 13.6657 9.32868 14.2445 9.0106 14.9027C8.69365 15.5593 8.52867 16.279 8.52791 17.0081C8.52791 19.7796 10.8984 21.9524 13.9348 21.9696H13.9778C17.5829 21.9237 20.1896 19.2711 20.1896 15.646C20.1896 12.4277 17.802 9.00021 13.3834 9.00021Z" fill="white"/>
</svg>
