<svg width="16" height="16" viewBox="0 0 16 16" fill="none" xmlns="http://www.w3.org/2000/svg">
<path fill-rule="evenodd" clip-rule="evenodd" d="M4.70171 0.0479998C3.85029 0.0868569 3.26857 0.221714 2.75886 0.420571C2.23314 0.624 1.78743 0.898286 1.34171 1.34286C0.898286 1.78743 0.624 2.23429 0.420571 2.76C0.221714 3.26857 0.0868569 3.85029 0.0479998 4.70171C0.00914265 5.55429 0 5.82743 0 8C0 10.1726 0.00914265 10.4457 0.0479998 11.2983C0.0868569 12.1497 0.221714 12.7314 0.420571 13.2411C0.624 13.7669 0.898286 14.2126 1.34286 14.6583C1.78743 15.1017 2.23429 15.376 2.76 15.5806C3.26857 15.7783 3.85029 15.912 4.70171 15.952C5.55543 15.9909 5.82743 16 8 16C10.1726 16 10.4457 15.9909 11.2983 15.952C12.1497 15.9131 12.7314 15.7783 13.2411 15.5806C13.7669 15.3749 14.2126 15.1017 14.6583 14.6571C15.1017 14.2126 15.376 13.7657 15.5806 13.24C15.7783 12.7314 15.912 12.1497 15.952 11.2983C15.9909 10.4446 16 10.1726 16 8C16 5.82743 15.9909 5.55429 15.952 4.70171C15.9131 3.85029 15.7783 3.26857 15.5806 2.75886C15.3795 2.22494 15.0644 1.74131 14.6571 1.34171C14.2126 0.898286 13.7657 0.624 13.24 0.420571C12.7314 0.221714 12.1497 0.0868569 11.2983 0.0479998C10.4457 0.00914265 10.1726 0 8 0C5.82743 0 5.55429 0.00914265 4.70171 0.0479998ZM3.89143 8C3.89143 9.08966 4.3243 10.1347 5.0948 10.9052C5.86531 11.6757 6.91034 12.1086 8 12.1086C9.08966 12.1086 10.1347 11.6757 10.9052 10.9052C11.6757 10.1347 12.1086 9.08966 12.1086 8C12.1086 6.91034 11.6757 5.86531 10.9052 5.0948C10.1347 4.3243 9.08966 3.89143 8 3.89143C6.91034 3.89143 5.86531 4.3243 5.0948 5.0948C4.3243 5.86531 3.89143 6.91034 3.89143 8ZM8 10.6663C7.29286 10.6663 6.61468 10.3854 6.11465 9.88535C5.61463 9.38532 5.33371 8.70714 5.33371 8C5.33371 7.29286 5.61463 6.61468 6.11465 6.11465C6.61468 5.61463 7.29286 5.33371 8 5.33371C8.70714 5.33371 9.38532 5.61463 9.88535 6.11465C10.3854 6.61468 10.6663 7.29286 10.6663 8C10.6663 8.70714 10.3854 9.38532 9.88535 9.88535C9.38532 10.3854 8.70714 10.6663 8 10.6663ZM13.6 3.44C13.6 3.56607 13.5752 3.6909 13.5269 3.80738C13.4787 3.92385 13.408 4.02968 13.3188 4.11882C13.2297 4.20797 13.1238 4.27868 13.0074 4.32692C12.8909 4.37517 12.7661 4.4 12.64 4.4C12.5139 4.4 12.3891 4.37517 12.2726 4.32692C12.1562 4.27868 12.0503 4.20797 11.9612 4.11882C11.872 4.02968 11.8013 3.92385 11.7531 3.80738C11.7048 3.6909 11.68 3.56607 11.68 3.44C11.68 3.18539 11.7811 2.94121 11.9612 2.76118C12.1412 2.58114 12.3854 2.48 12.64 2.48C12.8946 2.48 13.1388 2.58114 13.3188 2.76118C13.4989 2.94121 13.6 3.18539 13.6 3.44Z" fill="white"/>
</svg>
